<?xml version="1.0" encoding="UTF-8"?>
<!DOCTYPE svg PUBLIC "-//W3C//DTD SVG 1.1//EN" "http://www.w3.org/Graphics/SVG/1.1/DTD/svg11.dtd">
<svg xmlns="http://www.w3.org/2000/svg" version="1.1" width="20px" height="20px" style="shape-rendering:geometricPrecision; text-rendering:geometricPrecision; image-rendering:optimizeQuality; fill-rule:evenodd; clip-rule:evenodd" xmlns:xlink="http://www.w3.org/1999/xlink" viewBox="0 0 200 200">
<g><path style="opacity:0.974" fill="#1b1819" d="M 75.5,5.5 C 87.8333,5.5 100.167,5.5 112.5,5.5C 112.5,27.5 112.5,49.5 112.5,71.5C 123.167,71.5 133.833,71.5 144.5,71.5C 144.5,79.1667 144.5,86.8333 144.5,94.5C 155.167,94.5 165.833,94.5 176.5,94.5C 176.5,125.833 176.5,157.167 176.5,188.5C 121.5,188.5 66.5,188.5 11.5,188.5C 11.5,154.5 11.5,120.5 11.5,86.5C 22.1667,86.5 32.8333,86.5 43.5,86.5C 43.5,67.8333 43.5,49.1667 43.5,30.5C 54.1667,30.5 64.8333,30.5 75.5,30.5C 75.5,22.1667 75.5,13.8333 75.5,5.5 Z"/></g>
<g><path style="opacity:1" fill="#95979b" d="M 80.5,10.5 C 89.5,10.5 98.5,10.5 107.5,10.5C 107.5,30.8333 107.5,51.1667 107.5,71.5C 107.5,109.167 107.5,146.833 107.5,184.5C 98.5,184.5 89.5,184.5 80.5,184.5C 80.5,126.5 80.5,68.5 80.5,10.5 Z"/></g>
<g><path style="opacity:1" fill="#59585a" d="M 80.5,10.5 C 89.6517,9.50644 98.985,9.17311 108.5,9.5C 108.831,30.3401 108.497,51.0067 107.5,71.5C 107.5,51.1667 107.5,30.8333 107.5,10.5C 98.5,10.5 89.5,10.5 80.5,10.5 Z"/></g>
<g><path style="opacity:1" fill="#95989b" d="M 112.5,76.5 C 121.5,76.5 130.5,76.5 139.5,76.5C 139.5,112.167 139.5,147.833 139.5,183.5C 130.5,183.5 121.5,183.5 112.5,183.5C 112.5,147.833 112.5,112.167 112.5,76.5 Z"/></g>
<g><path style="opacity:1" fill="#5b5b5d" d="M 43.5,91.5 C 34.5,91.5 25.5,91.5 16.5,91.5C 16.5,122.167 16.5,152.833 16.5,183.5C 25.5,183.5 34.5,183.5 43.5,183.5C 34.3483,184.494 25.015,184.827 15.5,184.5C 15.5,153.167 15.5,121.833 15.5,90.5C 25.015,90.1731 34.3483,90.5064 43.5,91.5 Z"/></g>
<g><path style="opacity:1" fill="#95989b" d="M 43.5,91.5 C 43.5,122.167 43.5,152.833 43.5,183.5C 34.5,183.5 25.5,183.5 16.5,183.5C 16.5,152.833 16.5,122.167 16.5,91.5C 25.5,91.5 34.5,91.5 43.5,91.5 Z"/></g>
<g><path style="opacity:1" fill="#626164" d="M 112.5,76.5 C 121.652,75.5064 130.985,75.1731 140.5,75.5C 140.5,111.833 140.5,148.167 140.5,184.5C 130.985,184.827 121.652,184.494 112.5,183.5C 121.5,183.5 130.5,183.5 139.5,183.5C 139.5,147.833 139.5,112.167 139.5,76.5C 130.5,76.5 121.5,76.5 112.5,76.5 Z"/></g>
<g><path style="opacity:1" fill="#95989b" d="M 171.5,99.5 C 171.5,127.5 171.5,155.5 171.5,183.5C 162.5,183.5 153.5,183.5 144.5,183.5C 144.5,155.5 144.5,127.5 144.5,99.5C 153.5,99.5 162.5,99.5 171.5,99.5 Z"/></g>
<g><path style="opacity:1" fill="#727275" d="M 171.5,99.5 C 172.498,127.662 172.831,155.995 172.5,184.5C 162.985,184.827 153.652,184.494 144.5,183.5C 153.5,183.5 162.5,183.5 171.5,183.5C 171.5,155.5 171.5,127.5 171.5,99.5 Z"/></g>
<g><path style="opacity:1" fill="#86101a" d="M 48.5,35.5 C 48.5,84.8333 48.5,134.167 48.5,183.5C 57.5,183.5 66.5,183.5 75.5,183.5C 75.5,134.167 75.5,84.8333 75.5,35.5C 76.4989,84.9972 76.8322,134.664 76.5,184.5C 66.8333,184.5 57.1667,184.5 47.5,184.5C 47.1678,134.664 47.5011,84.9972 48.5,35.5 Z"/></g>
<g><path style="opacity:1" fill="#e4001b" d="M 48.5,35.5 C 57.5,35.5 66.5,35.5 75.5,35.5C 75.5,84.8333 75.5,134.167 75.5,183.5C 66.5,183.5 57.5,183.5 48.5,183.5C 48.5,134.167 48.5,84.8333 48.5,35.5 Z"/></g>
</svg>
